<mxfile host="app.diagrams.net" modified="2023-07-14T03:18:37.443Z" agent="Mozilla/5.0 (Macintosh; Intel Mac OS X 10_15_7) AppleWebKit/537.36 (KHTML, like Gecko) Chrome/114.0.0.0 Safari/537.36" etag="7zZsnM37pC70N80QXPH_" version="21.6.1" type="github">
  <diagram name="第 1 页" id="W9f0oxT6dP_3-EWd8dFf">
    <mxGraphModel dx="867" dy="415" grid="1" gridSize="10" guides="1" tooltips="1" connect="1" arrows="1" fold="1" page="1" pageScale="1" pageWidth="827" pageHeight="1169" math="0" shadow="0">
      <root>
        <mxCell id="0" />
        <mxCell id="1" parent="0" />
        <mxCell id="aXwj2j6cJyJAVG2uXIP3-6" style="edgeStyle=orthogonalEdgeStyle;rounded=0;orthogonalLoop=1;jettySize=auto;html=1;entryX=0;entryY=0.5;entryDx=0;entryDy=0;" edge="1" parent="1" source="aXwj2j6cJyJAVG2uXIP3-1" target="aXwj2j6cJyJAVG2uXIP3-2">
          <mxGeometry relative="1" as="geometry" />
        </mxCell>
        <mxCell id="aXwj2j6cJyJAVG2uXIP3-10" style="edgeStyle=orthogonalEdgeStyle;rounded=0;orthogonalLoop=1;jettySize=auto;html=1;entryX=0.5;entryY=0;entryDx=0;entryDy=0;" edge="1" parent="1" source="aXwj2j6cJyJAVG2uXIP3-1" target="aXwj2j6cJyJAVG2uXIP3-3">
          <mxGeometry relative="1" as="geometry" />
        </mxCell>
        <mxCell id="aXwj2j6cJyJAVG2uXIP3-1" value="&lt;font style=&quot;font-size: 15px;&quot;&gt;发送心跳&lt;/font&gt;" style="rounded=1;whiteSpace=wrap;html=1;" vertex="1" parent="1">
          <mxGeometry x="210" y="170" width="120" height="60" as="geometry" />
        </mxCell>
        <mxCell id="aXwj2j6cJyJAVG2uXIP3-7" style="edgeStyle=orthogonalEdgeStyle;rounded=0;orthogonalLoop=1;jettySize=auto;html=1;entryX=0.5;entryY=0;entryDx=0;entryDy=0;" edge="1" parent="1" source="aXwj2j6cJyJAVG2uXIP3-2" target="aXwj2j6cJyJAVG2uXIP3-4">
          <mxGeometry relative="1" as="geometry" />
        </mxCell>
        <mxCell id="aXwj2j6cJyJAVG2uXIP3-2" value="&lt;font style=&quot;font-size: 15px;&quot;&gt;控制台&lt;/font&gt;" style="rounded=1;whiteSpace=wrap;html=1;" vertex="1" parent="1">
          <mxGeometry x="480" y="170" width="120" height="60" as="geometry" />
        </mxCell>
        <mxCell id="aXwj2j6cJyJAVG2uXIP3-9" style="edgeStyle=orthogonalEdgeStyle;rounded=0;orthogonalLoop=1;jettySize=auto;html=1;entryX=0;entryY=0.5;entryDx=0;entryDy=0;exitX=0;exitY=0.5;exitDx=0;exitDy=0;" edge="1" parent="1" source="aXwj2j6cJyJAVG2uXIP3-3" target="aXwj2j6cJyJAVG2uXIP3-1">
          <mxGeometry relative="1" as="geometry">
            <mxPoint x="180" y="360" as="sourcePoint" />
            <mxPoint x="180" y="200" as="targetPoint" />
            <Array as="points">
              <mxPoint x="120" y="360" />
              <mxPoint x="120" y="200" />
            </Array>
          </mxGeometry>
        </mxCell>
        <mxCell id="aXwj2j6cJyJAVG2uXIP3-13" value="10s后发送心跳" style="edgeLabel;html=1;align=center;verticalAlign=middle;resizable=0;points=[];" vertex="1" connectable="0" parent="aXwj2j6cJyJAVG2uXIP3-9">
          <mxGeometry x="0.1299" y="-3" relative="1" as="geometry">
            <mxPoint x="47" y="87" as="offset" />
          </mxGeometry>
        </mxCell>
        <mxCell id="aXwj2j6cJyJAVG2uXIP3-11" style="edgeStyle=orthogonalEdgeStyle;rounded=0;orthogonalLoop=1;jettySize=auto;html=1;entryX=0.5;entryY=0;entryDx=0;entryDy=0;" edge="1" parent="1" source="aXwj2j6cJyJAVG2uXIP3-3" target="aXwj2j6cJyJAVG2uXIP3-5">
          <mxGeometry relative="1" as="geometry" />
        </mxCell>
        <mxCell id="aXwj2j6cJyJAVG2uXIP3-3" value="&lt;font style=&quot;font-size: 15px;&quot;&gt;设置心跳定时器&lt;/font&gt;" style="rounded=1;whiteSpace=wrap;html=1;" vertex="1" parent="1">
          <mxGeometry x="210" y="330" width="120" height="60" as="geometry" />
        </mxCell>
        <mxCell id="aXwj2j6cJyJAVG2uXIP3-8" style="edgeStyle=orthogonalEdgeStyle;rounded=0;orthogonalLoop=1;jettySize=auto;html=1;entryX=1;entryY=0.5;entryDx=0;entryDy=0;" edge="1" parent="1" source="aXwj2j6cJyJAVG2uXIP3-4" target="aXwj2j6cJyJAVG2uXIP3-3">
          <mxGeometry relative="1" as="geometry" />
        </mxCell>
        <mxCell id="aXwj2j6cJyJAVG2uXIP3-4" value="&lt;font style=&quot;font-size: 15px;&quot;&gt;接受心跳响应&lt;br&gt;（定时器重置）&lt;/font&gt;" style="rounded=1;whiteSpace=wrap;html=1;" vertex="1" parent="1">
          <mxGeometry x="480" y="330" width="120" height="60" as="geometry" />
        </mxCell>
        <mxCell id="aXwj2j6cJyJAVG2uXIP3-17" style="edgeStyle=orthogonalEdgeStyle;rounded=0;orthogonalLoop=1;jettySize=auto;html=1;endArrow=none;endFill=0;" edge="1" parent="1" source="aXwj2j6cJyJAVG2uXIP3-5">
          <mxGeometry relative="1" as="geometry">
            <mxPoint x="120" y="360" as="targetPoint" />
          </mxGeometry>
        </mxCell>
        <mxCell id="aXwj2j6cJyJAVG2uXIP3-5" value="&lt;font style=&quot;font-size: 15px;&quot;&gt;重新连接&lt;/font&gt;" style="rounded=1;whiteSpace=wrap;html=1;" vertex="1" parent="1">
          <mxGeometry x="210" y="470" width="120" height="60" as="geometry" />
        </mxCell>
        <mxCell id="aXwj2j6cJyJAVG2uXIP3-12" value="超时" style="text;html=1;align=center;verticalAlign=middle;resizable=0;points=[];autosize=1;strokeColor=none;fillColor=none;" vertex="1" parent="1">
          <mxGeometry x="275" y="418" width="50" height="30" as="geometry" />
        </mxCell>
        <mxCell id="aXwj2j6cJyJAVG2uXIP3-14" value="发送心跳" style="text;html=1;align=center;verticalAlign=middle;resizable=0;points=[];autosize=1;strokeColor=none;fillColor=none;" vertex="1" parent="1">
          <mxGeometry x="355" y="178" width="70" height="30" as="geometry" />
        </mxCell>
        <mxCell id="aXwj2j6cJyJAVG2uXIP3-15" value="清除定时器" style="text;html=1;align=center;verticalAlign=middle;resizable=0;points=[];autosize=1;strokeColor=none;fillColor=none;" vertex="1" parent="1">
          <mxGeometry x="360" y="330" width="80" height="30" as="geometry" />
        </mxCell>
      </root>
    </mxGraphModel>
  </diagram>
</mxfile>
